<mxfile host="app.diagrams.net" modified="2024-01-09T15:07:11.584Z" agent="Mozilla/5.0 (Windows NT 10.0; Win64; x64) AppleWebKit/537.36 (KHTML, like Gecko) Chrome/120.0.0.0 Safari/537.36" etag="MKftN3J8gy4BARNREjJn" version="22.1.17" type="device">
  <diagram name="Page-1" id="gz4EI0qPCrJJ951eRRgy">
    <mxGraphModel dx="1434" dy="780" grid="1" gridSize="10" guides="1" tooltips="1" connect="1" arrows="1" fold="1" page="1" pageScale="1" pageWidth="850" pageHeight="1100" math="0" shadow="0">
      <root>
        <mxCell id="0" />
        <mxCell id="1" parent="0" />
        <mxCell id="SDDg6ojWNW9c7yrqR2lW-10" style="edgeStyle=orthogonalEdgeStyle;rounded=0;orthogonalLoop=1;jettySize=auto;html=1;" edge="1" parent="1" source="SDDg6ojWNW9c7yrqR2lW-1" target="SDDg6ojWNW9c7yrqR2lW-5">
          <mxGeometry relative="1" as="geometry" />
        </mxCell>
        <mxCell id="SDDg6ojWNW9c7yrqR2lW-11" style="edgeStyle=orthogonalEdgeStyle;rounded=0;orthogonalLoop=1;jettySize=auto;html=1;" edge="1" parent="1" source="SDDg6ojWNW9c7yrqR2lW-1" target="SDDg6ojWNW9c7yrqR2lW-9">
          <mxGeometry relative="1" as="geometry" />
        </mxCell>
        <mxCell id="SDDg6ojWNW9c7yrqR2lW-1" value="Students/Parents" style="shape=umlActor;verticalLabelPosition=bottom;verticalAlign=top;html=1;outlineConnect=0;" vertex="1" parent="1">
          <mxGeometry x="660" width="30" height="60" as="geometry" />
        </mxCell>
        <mxCell id="SDDg6ojWNW9c7yrqR2lW-4" value="President / Staff / Faculty" style="shape=umlActor;verticalLabelPosition=bottom;verticalAlign=top;html=1;outlineConnect=0;" vertex="1" parent="1">
          <mxGeometry x="65" y="20" width="30" height="60" as="geometry" />
        </mxCell>
        <mxCell id="SDDg6ojWNW9c7yrqR2lW-5" value="Pay Registration Costs" style="rounded=0;whiteSpace=wrap;html=1;" vertex="1" parent="1">
          <mxGeometry x="520" y="160" width="120" height="60" as="geometry" />
        </mxCell>
        <mxCell id="SDDg6ojWNW9c7yrqR2lW-6" value="Expense Tracking" style="whiteSpace=wrap;html=1;" vertex="1" parent="1">
          <mxGeometry x="20" y="160" width="120" height="60" as="geometry" />
        </mxCell>
        <mxCell id="SDDg6ojWNW9c7yrqR2lW-9" value="See Payment History" style="rounded=0;whiteSpace=wrap;html=1;" vertex="1" parent="1">
          <mxGeometry x="710" y="160" width="120" height="60" as="geometry" />
        </mxCell>
        <mxCell id="SDDg6ojWNW9c7yrqR2lW-12" value="Approval Expenses" style="whiteSpace=wrap;html=1;" vertex="1" parent="1">
          <mxGeometry x="200" y="60" width="120" height="60" as="geometry" />
        </mxCell>
        <mxCell id="SDDg6ojWNW9c7yrqR2lW-13" value="Generate Reports" style="whiteSpace=wrap;html=1;" vertex="1" parent="1">
          <mxGeometry x="200" y="160" width="120" height="60" as="geometry" />
        </mxCell>
        <mxCell id="SDDg6ojWNW9c7yrqR2lW-14" value="Invoice Students and others" style="whiteSpace=wrap;html=1;" vertex="1" parent="1">
          <mxGeometry x="20" y="270" width="120" height="60" as="geometry" />
        </mxCell>
        <mxCell id="SDDg6ojWNW9c7yrqR2lW-15" value="Track Assets" style="whiteSpace=wrap;html=1;" vertex="1" parent="1">
          <mxGeometry x="200" y="270" width="120" height="60" as="geometry" />
        </mxCell>
        <mxCell id="SDDg6ojWNW9c7yrqR2lW-17" value="Pay Invoices" style="whiteSpace=wrap;html=1;" vertex="1" parent="1">
          <mxGeometry x="20" y="380" width="120" height="60" as="geometry" />
        </mxCell>
      </root>
    </mxGraphModel>
  </diagram>
</mxfile>
